HIERARCHY
ROOT ui
{
	 OFFSET 0 0 0
	 CHANNELS 3 XPosition YPosition Z Position
	 EndSite
	 {
	 OFFSET 0 -1 0
	 }
}
ROOT li
{
	 OFFSET 0 0 0
	 CHANNELS 3 XPosition YPosition Z Position
	 EndSite
	 {
	 OFFSET 0 -1 0
	 }
}
ROOT ul
{
	 OFFSET 0 0 0
	 CHANNELS 3 XPosition YPosition Z Position
	 EndSite
	 {
	 OFFSET 0 -1 0
	 }
}
ROOT ll
{
	 OFFSET 0 0 0
	 CHANNELS 3 XPosition YPosition Z Position
	 EndSite
	 {
	 OFFSET 0 -1 0
	 }
}
ROOT tt
{
	 OFFSET 0 0 0
	 CHANNELS 3 XPosition YPosition Z Position
	 EndSite
	 {
	 OFFSET 0 -1 0
	 }
}
ROOT tb
{
	 OFFSET 0 0 0
	 CHANNELS 3 XPosition YPosition Z Position
	 EndSite
	 {
	 OFFSET 0 -1 0
	 }
}
ROOT td
{
	 OFFSET 0 0 0
	 CHANNELS 3 XPosition YPosition Z Position
	 EndSite
	 {
	 OFFSET 0 -1 0
	 }
}
ROOT v
{
	 OFFSET 0 0 0
	 CHANNELS 3 XPosition YPosition Z Position
	 EndSite
	 {
	 OFFSET 0 -1 0
	 }
}
ROOT bn
{
	 OFFSET 0 0 0
	 CHANNELS 3 XPosition YPosition Z Position
	 EndSite
	 {
	 OFFSET 0 -1 0
	 }
}
MOTION
Frames: 32
Frame Time: 0.002
-0.015604430198669434	6.635950207710266E-4	0		0.40954693603515624	-2.345123779296875	0		-1.1187996826171875	-0.04238589859008789	0		-0.853415771484375	-2.329689453125	0		1.2803382568359376	-0.660639404296875	0		2.9854716796875	-0.16655720520019532	0		4.51371728515625	-0.03371834564208984	0		5.5631640625	0.02150139808654785	0		-0.06939640808105468	5.9502353515625	0		
-0.012302205085754395	6.705750226974487E-4	0		0.41094198608398436	-2.34704833984375	0		-1.041533935546875	-0.045045452117919924	0		-0.8520216064453126	-2.33168701171875	0		1.322561279296875	-0.6664010620117188	0		2.983936279296875	-0.15926995849609374	0		4.50602392578125	-0.03321108245849609	0		5.55646728515625	0.022047704696655273	0		-0.06741645050048828	5.9512607421875	0		
6.01997971534729E-4	-0.008525554656982421	0		0.3913319091796875	-2.339511474609375	0		-1.10832763671875	-0.03957421112060547	0		-0.8511991577148438	-2.3506689453125	0		1.2899027099609375	-0.6565323486328125	0		2.98704638671875	-0.15908326721191407	0		4.513255859375	-0.027026422500610353	0		5.5637392578125	0.03029110336303711	0		-0.19516062927246094	5.92908984375	0		
0.010630296707153321	-0.0016508630514144897	0		0.4253700866699219	-2.338132080078125	0		-1.1013616943359374	-0.03569278335571289	0		-0.806119873046875	-2.347593017578125	0		1.304813232421875	-0.6566956176757812	0		3.0088427734375	-0.16330679321289063	0		4.51926416015625	-0.020826757431030272	0		5.586546875	0.027181997299194335	0		-0.17738339233398437	5.93878125	0		
-0.06369399642944336	0.001039870023727417	0		0.4281188659667969	-2.3380771484375	0		-1.1028087158203126	-0.03962419128417969	0		-0.8338473510742187	-2.32293603515625	0		1.2985477294921874	-0.6534053955078125	0		2.99570556640625	-0.15278567504882812	0		4.53494140625	-0.018854751586914062	0		5.5833984375	0.0376120719909668	0		-0.05875851821899414	5.9503095703125	0		
0.008495303153991699	-0.008421623229980468	0		0.45244085693359376	-2.345487548828125	0		-1.0264683837890625	-0.0422176513671875	0		-0.8334131469726562	-2.32488671875	0		1.29788916015625	-0.6562430419921875	0		2.977986572265625	-0.15718528747558594	0		4.51219677734375	-0.024080913543701173	0		5.57745361328125	0.023068046569824217	0		-0.056636211395263675	5.9503486328125	0		
-0.0761630630493164	0.003489238977432251	0		0.42868435668945315	-2.342865234375	0		-1.0983212890625	-0.03962186813354492	0		-0.8363252563476562	-2.329760498046875	0		1.3358197021484375	-0.665914794921875	0		3.001923095703125	-0.1654946746826172	0		4.5191318359375	-0.03196881484985352	0		5.57956005859375	0.02332519340515137	0		-0.054751220703125	5.9503955078125	0		
0.0026317420005798338	8.96767020225525E-4	0		0.43059219360351564	-2.342794677734375	0		-1.0225244140625	-0.042182411193847656	0		-0.8008748168945312	-2.35145263671875	0		1.3018753662109375	-0.6560476684570312	0		3.007868408203125	-0.16042974853515626	0		4.52509423828125	-0.02585625457763672	0		5.5855634765625	0.031470752716064455	0		-0.05310502624511719	5.95045068359375	0		
0.011344589233398438	0.00781130313873291	0		0.4363226318359375	-2.3378046875	0		-1.094920166015625	-0.03956185531616211	0		-0.8256456298828125	-2.322836669921875	0		1.34746826171875	-0.6558892822265625	0		3.000482177734375	-0.15809573364257812	0		4.52666015625	-0.025675481796264648	0		5.5812783203125	0.038805110931396485	0		-0.18415283203125	5.9303408203125	0		
0.005500210762023926	0.0010369570255279541	0		0.46362255859375	-2.340276611328125	0		-1.019654052734375	-0.0420880126953125	0		-0.82429736328125	-2.3227783203125	0		1.3078365478515626	-0.6529141845703125	0		3.010743896484375	-0.1601553192138672	0		4.53896142578125	-0.025748876571655272	0		5.5884306640625	0.031860326766967775	0		-0.0505023193359375	5.95058837890625	0		
0.020418373107910157	-0.005177878856658936	0		0.4346458435058594	-2.34254736328125	0		-1.0186041259765626	-0.042019149780273435	0		-0.8252593994140625	-2.32466357421875	0		1.343694580078125	-0.66255908203125	0		3.02879150390625	-0.16039561462402344	0		4.52488671875	-0.031284791946411136	0		5.5836728515625	0.04114292526245117	0		-0.04953199005126953	5.950669921875	0		
0.0073490629196167	0.0012088489532470703	0		0.45937289428710937	-2.34696533203125	0		-1.0218673706054688	-0.044851764678955075	0		-0.827483642578125	-2.326516357421875	0		1.30355126953125	-0.6595852661132813	0		3.003640869140625	-0.15772853088378908	0		4.52085791015625	-0.023055234909057618	0		5.58610888671875	0.02423716163635254	0		-0.04877901840209961	5.95075927734375	0		
-0.06905990600585937	0.003946010112762451	0		0.4360223388671875	-2.34235791015625	0		-1.0912138671875	-0.03926740264892578	0		-0.823883056640625	-2.324487548828125	0		1.313060546875	-0.6616776733398437	0		3.004193603515625	-0.1576248016357422	0		4.53036572265625	-0.025138776779174806	0		5.5808330078125	0.03247415161132813	0		-0.048243270874023435	5.9508544921875	0		
0.02516407585144043	-9.572569727897644E-4	0		0.44043258666992186	-2.3373447265625	0		-1.0868201904296875	-0.03525082015991211	0		-0.8510628662109375	-2.34680419921875	0		1.298521240234375	-0.6542615356445313	0		3.026518798828125	-0.15699980163574218	0		4.53380224609375	-0.01911284065246582	0		5.59528857421875	0.03926312255859375	0		-0.04698595809936523	5.9479345703125	0		
-0.051721229553222656	0.0017894120216369628	0		0.4404927978515625	-2.3372431640625	0		-1.0168671264648437	-0.041631256103515625	0		-0.8194337768554687	-2.320361572265625	0		1.3106326904296874	-0.6524222412109375	0		3.00770458984375	-0.1515114288330078	0		4.52592236328125	-0.01686855125427246	0		5.5853671875	0.03954342269897461	0		-0.18026667785644532	5.930880859375	0		
0.008143162727355957	0.0016158950328826905	0		0.43828155517578127	-2.33909814453125	0		-1.09097265625	-0.038934104919433596	0		-0.8236870727539063	-2.32415966796875	0		1.3074188232421875	-0.65526513671875	0		3.007559814453125	-0.15143772888183593	0		4.54364697265625	-0.02319434928894043	0		5.5869033203125	0.024549531936645507	0		-0.04788395309448242	5.9511669921875	0		
-0.05935571670532227	-0.004844061851501465	0		0.43379833984375	-2.34391064453125	0		-1.02141796875	-0.04430506134033203	0		-0.8271062622070312	-2.325975830078125	0		1.303981201171875	-0.6591118774414062	0		2.99706689453125	-0.1581589813232422	0		4.52613623046875	-0.030788232803344726	0		5.586560546875	0.0245755500793457	0		-0.048140655517578124	5.95127490234375	0		
0.017086557388305664	-0.007382413864135742	0		0.4352816467285156	-2.34185498046875	0		-1.0918359375	-0.03868582534790039	0		-0.8615716552734375	-2.32112939453125	0		1.3065360107421875	-0.655093017578125	0		3.0125205078125	-0.15944596862792967	0		4.5256171875	-0.030759712219238282	0		5.58021484375	0.032712268829345706	0		-0.04855704498291016	5.95138232421875	0		
0.006616593837738037	0.0019336090087890626	0		0.4366363220214844	-2.33880224609375	0		-1.0925013427734376	-0.0385606689453125	0		-0.8232891845703125	-2.321843017578125	0		1.3089224853515624	-0.6520781860351562	0		2.990029052734375	-0.15092976379394532	0		4.53220703125	-0.01889353942871094	0		5.593697265625	0.039409835815429686	0		-0.04910890197753906	5.95148779296875	0		
0.022789838790893555	-3.27470988035202E-4	0		0.4358094787597656	-2.338708251953125	0		-1.0932822265625	-0.038436168670654296	0		-0.7915944213867188	-2.344425537109375	0		1.3490771484375	-0.6548792724609375	0		3.016918212890625	-0.16648310852050782	0		4.5492939453125	-0.025265674591064453	0		5.58876904296875	0.032487808227539064	0		-0.04976987838745117	5.95159130859375	0		
0.004969446182250976	0.0021371810436248777	0		0.45878167724609376	-2.34412939453125	0		-1.024251953125	-0.04381209564208984	0		-0.8270729370117188	-2.3235625	0		1.3041851806640625	-0.6548623657226562	0		3.01843310546875	-0.14849078369140625	0		4.522603515625	-0.016702281951904298	0		5.58790234375	0.03247441864013672	0		-0.05051502990722656	5.951693359375	0		
0.004040349960327148	0.0022370328903198243	0		0.4298107604980469	-2.34343798828125	0		-1.0991434326171876	-0.04110359954833984	0		-0.8280498657226563	-2.3234453125	0		1.3411051025390626	-0.6616031494140625	0		3.003439697265625	-0.15115184020996095	0		4.51754638671875	-0.022608144760131836	0		5.58280322265625	0.02454710388183594	0		-0.052300067901611326	5.9528154296875	0		
0.012876345634460449	-0.006877031803131104	0		0.43083709716796875	-2.3413916015625	0		-1.10011279296875	-0.040982536315917965	0		-0.8247109985351563	-2.353430419921875	0		1.282286865234375	-0.6532877807617188	0		2.969497314453125	-0.14940579223632813	0		4.5255322265625	-0.024794185638427734	0		5.58179248046875	0.02253267288208008	0		-0.05219058990478516	5.95089453125	0		
0.019037784576416014	6.813599914312362E-5	0		0.4069803466796875	-2.33281005859375	0		-1.0929522705078125	-0.03403662872314453	0		-0.7934947509765625	-2.342007080078125	0		1.3132576904296875	-0.6549035034179688	0		3.020365966796875	-0.1564839782714844	0		4.51769677734375	-0.01763821792602539	0		5.584955078125	0.029431087493896484	0		-0.03686922836303711	5.95964697265625	0		
0.008245290756225586	0.009377548217773438	0		0.4588262939453125	-2.3388603515625	0		-1.024065185546875	-0.04042339324951172	0		-0.8270481567382812	-2.319189697265625	0		1.303322998046875	-0.6516395874023437	0		2.991725341796875	-0.13984779357910157	0		4.51872900390625	-0.016673402786254884	0		5.58818115234375	0.039329849243164065	0		-0.05390917205810547	5.95209033203125	0		
0.009924906730651856	-0.006587296962738037	0		0.4277480163574219	-2.34112646484375	0		-1.02910498046875	-0.04322051239013672	0		-0.8301110229492188	-2.321033935546875	0		1.2992711181640626	-0.6545033569335937	0		2.98935986328125	-0.15778384399414064	0		4.50879833984375	-0.014471388816833497	0		5.5730595703125	0.03262090301513672	0		-0.1872338562011719	5.93203564453125	0		
-8.295590281486512E-4	0.002721545934677124	0		0.4267528076171875	-2.3410390625	0		-1.030056396484375	-0.04310533905029297	0		-0.8700967407226563	-2.32008203125	0		1.29830810546875	-0.6544324951171875	0		2.99151318359375	-0.15281097412109376	0		4.50784765625	-0.014461621284484864	0		5.577935546875	0.02448295021057129	0		-0.05560652923583984	5.9522841796875	0		
-0.001745627999305725	0.002816220045089722	0		0.42579412841796876	-2.3409521484375	0		-1.1049345703125	-0.040395858764648435	0		-0.801589111328125	-2.34547607421875	0		1.2973800048828126	-0.6543614501953126	0		2.9874873046875	-0.15770481872558595	0		4.5158857421875	-0.016642597198486327	0		5.57534375	0.0395158576965332	0		-0.05641443634033203	5.9523798828125	0		
0.01124915599822998	-0.003391274929046631	0		0.4269471740722656	-2.33790966796875	0		-1.1017437744140626	-0.03737129592895508	0		-0.8733327026367188	-2.33683837890625	0		1.2785872802734375	-0.6499019165039063	0		3.004974853515625	-0.14105352783203126	0		4.51501318359375	-0.016624059677124024	0		5.58610205078125	0.022261749267578124	0		-0.05718833541870117	5.95247412109375	0		
6.471179723739624E-4	0.006913589954376221	0		0.42609368896484373	-2.337824462890625	0		-1.028603515625	-0.03986270904541016	0		-0.8317855834960938	-2.318646240234375	0		1.298731201171875	-0.6512821655273437	0		2.977029296875	-0.14642015075683593	0		4.5141923828125	-0.016596773147583007	0		5.58364990234375	0.039313079833984375	0		-0.05792425155639649	5.95256640625	0		
-0.004199004173278809	0.0030892889499664305	0		0.4232425537109375	-2.340697021484375	0		-1.0334285888671875	-0.04267576217651367	0		-0.8325721435546874	-2.318548828125	0		1.2979632568359376	-0.6512083129882813	0		3.009237548828125	-0.1480780792236328	0		4.509302734375	-0.0224709587097168	0		5.5745673828125	0.02451552391052246	0		-0.05861852645874024	5.9526552734375	0		
0.00491008996963501	-0.006041097164154053	0		0.4204880676269531	-2.34257275390625	0		-1.040013427734375	-0.0374556884765625	0		-0.8068953857421876	-2.347035888671875	0		1.2942001953125	-0.6540689086914062	0		2.965617431640625	-0.144088134765625	0		4.51273779296875	-0.016509275436401367	0		5.57804541015625	0.03246867752075195	0		-0.06024562454223633	5.9537607421875	0		
